<mxfile host="app.diagrams.net" agent="Mozilla/5.0 (X11; Linux x86_64) AppleWebKit/537.36 (KHTML, like Gecko) Chrome/133.0.0.0 Safari/537.36 OPR/118.0.0.0" version="26.2.14">
  <diagram name="Page-1" id="NBzdZko4SvR-STcZ2w9a">
    <mxGraphModel dx="1143" dy="660" grid="1" gridSize="10" guides="1" tooltips="1" connect="1" arrows="1" fold="1" page="1" pageScale="1" pageWidth="850" pageHeight="1100" math="0" shadow="0">
      <root>
        <mxCell id="0" />
        <mxCell id="1" parent="0" />
        <mxCell id="wpxVcfK2tdA6Ku4u_dqy-11" value="&lt;p style=&quot;margin:0px;margin-top:6px;text-align:center;&quot;&gt;&lt;b&gt;Package_data&lt;/b&gt;&lt;/p&gt;&lt;hr size=&quot;1&quot; style=&quot;border-style:solid;&quot;&gt;&lt;p style=&quot;margin:0px;margin-left:8px;&quot;&gt;+ Power_level: char&lt;/p&gt;&lt;p style=&quot;margin:0px;margin-left:8px;&quot;&gt;+ Temperature [N]: int&lt;/p&gt;&lt;p style=&quot;margin:0px;margin-left:8px;&quot;&gt;+ IMU [N]: int&lt;/p&gt;&lt;p style=&quot;margin:0px;margin-left:8px;&quot;&gt;+ GNSS [2] [N]: int&lt;/p&gt;&lt;p style=&quot;margin:0px;margin-left:8px;&quot;&gt;+ Errors&lt;br&gt;&lt;br&gt;&lt;/p&gt;" style="align=left;overflow=fill;html=1;dropTarget=0;whiteSpace=wrap;" vertex="1" parent="1">
          <mxGeometry x="60" y="200" width="180" height="110" as="geometry" />
        </mxCell>
        <mxCell id="wpxVcfK2tdA6Ku4u_dqy-12" value="" style="shape=component;jettyWidth=8;jettyHeight=4;" vertex="1" parent="wpxVcfK2tdA6Ku4u_dqy-11">
          <mxGeometry x="1" width="20" height="20" relative="1" as="geometry">
            <mxPoint x="-24" y="4" as="offset" />
          </mxGeometry>
        </mxCell>
        <mxCell id="wpxVcfK2tdA6Ku4u_dqy-14" value="" style="rounded=0;whiteSpace=wrap;html=1;" vertex="1" parent="1">
          <mxGeometry x="280" y="170" width="160" height="220" as="geometry" />
        </mxCell>
        <mxCell id="wpxVcfK2tdA6Ku4u_dqy-16" value="&lt;b&gt;Package_data&lt;/b&gt;" style="rounded=0;whiteSpace=wrap;html=1;" vertex="1" parent="1">
          <mxGeometry x="290" y="210" width="140" height="80" as="geometry" />
        </mxCell>
        <mxCell id="wpxVcfK2tdA6Ku4u_dqy-19" value="&lt;b&gt;Package_data&lt;/b&gt;" style="rounded=0;whiteSpace=wrap;html=1;" vertex="1" parent="1">
          <mxGeometry x="290" y="300" width="140" height="80" as="geometry" />
        </mxCell>
        <mxCell id="wpxVcfK2tdA6Ku4u_dqy-21" style="edgeStyle=orthogonalEdgeStyle;rounded=0;orthogonalLoop=1;jettySize=auto;html=1;" edge="1" parent="1" source="wpxVcfK2tdA6Ku4u_dqy-20">
          <mxGeometry relative="1" as="geometry">
            <mxPoint x="430" y="210" as="targetPoint" />
          </mxGeometry>
        </mxCell>
        <mxCell id="wpxVcfK2tdA6Ku4u_dqy-20" value="index" style="ellipse;whiteSpace=wrap;html=1;aspect=fixed;" vertex="1" parent="1">
          <mxGeometry x="460" y="190" width="40" height="40" as="geometry" />
        </mxCell>
        <mxCell id="wpxVcfK2tdA6Ku4u_dqy-35" value="" style="edgeStyle=orthogonalEdgeStyle;rounded=0;orthogonalLoop=1;jettySize=auto;html=1;" edge="1" parent="1" source="wpxVcfK2tdA6Ku4u_dqy-23" target="wpxVcfK2tdA6Ku4u_dqy-26">
          <mxGeometry relative="1" as="geometry" />
        </mxCell>
        <mxCell id="wpxVcfK2tdA6Ku4u_dqy-23" value="Write_packege_data" style="ellipse;whiteSpace=wrap;html=1;" vertex="1" parent="1">
          <mxGeometry x="50" y="560" width="120" height="60" as="geometry" />
        </mxCell>
        <mxCell id="wpxVcfK2tdA6Ku4u_dqy-36" value="" style="edgeStyle=orthogonalEdgeStyle;rounded=0;orthogonalLoop=1;jettySize=auto;html=1;" edge="1" parent="1" source="wpxVcfK2tdA6Ku4u_dqy-24" target="wpxVcfK2tdA6Ku4u_dqy-28">
          <mxGeometry relative="1" as="geometry" />
        </mxCell>
        <mxCell id="wpxVcfK2tdA6Ku4u_dqy-24" value="Read_packege_data" style="ellipse;whiteSpace=wrap;html=1;" vertex="1" parent="1">
          <mxGeometry x="300" y="560" width="120" height="60" as="geometry" />
        </mxCell>
        <mxCell id="wpxVcfK2tdA6Ku4u_dqy-26" value="Return&amp;nbsp;&lt;div&gt;Package_data_array [ ! index ]&lt;/div&gt;" style="ellipse;whiteSpace=wrap;html=1;" vertex="1" parent="1">
          <mxGeometry x="50" y="660" width="120" height="60" as="geometry" />
        </mxCell>
        <mxCell id="wpxVcfK2tdA6Ku4u_dqy-28" value="Return&amp;nbsp;&lt;div&gt;Package_data_array [ index ]&lt;/div&gt;" style="ellipse;whiteSpace=wrap;html=1;" vertex="1" parent="1">
          <mxGeometry x="300" y="660" width="120" height="60" as="geometry" />
        </mxCell>
        <mxCell id="wpxVcfK2tdA6Ku4u_dqy-32" style="edgeStyle=orthogonalEdgeStyle;rounded=0;orthogonalLoop=1;jettySize=auto;html=1;" edge="1" parent="1" source="wpxVcfK2tdA6Ku4u_dqy-29" target="wpxVcfK2tdA6Ku4u_dqy-31">
          <mxGeometry relative="1" as="geometry" />
        </mxCell>
        <mxCell id="wpxVcfK2tdA6Ku4u_dqy-29" value="Update" style="ellipse;whiteSpace=wrap;html=1;" vertex="1" parent="1">
          <mxGeometry x="550" y="560" width="120" height="60" as="geometry" />
        </mxCell>
        <mxCell id="wpxVcfK2tdA6Ku4u_dqy-30" value="Return" style="ellipse;whiteSpace=wrap;html=1;" vertex="1" parent="1">
          <mxGeometry x="550" y="760" width="120" height="60" as="geometry" />
        </mxCell>
        <mxCell id="wpxVcfK2tdA6Ku4u_dqy-33" style="edgeStyle=orthogonalEdgeStyle;rounded=0;orthogonalLoop=1;jettySize=auto;html=1;" edge="1" parent="1" source="wpxVcfK2tdA6Ku4u_dqy-31" target="wpxVcfK2tdA6Ku4u_dqy-30">
          <mxGeometry relative="1" as="geometry" />
        </mxCell>
        <mxCell id="wpxVcfK2tdA6Ku4u_dqy-31" value="index != index" style="rounded=0;whiteSpace=wrap;html=1;" vertex="1" parent="1">
          <mxGeometry x="550" y="660" width="120" height="60" as="geometry" />
        </mxCell>
        <mxCell id="wpxVcfK2tdA6Ku4u_dqy-37" value="&lt;b&gt;Package_data_array&lt;/b&gt;" style="text;html=1;align=center;verticalAlign=middle;whiteSpace=wrap;rounded=0;" vertex="1" parent="1">
          <mxGeometry x="280" y="170" width="160" height="30" as="geometry" />
        </mxCell>
      </root>
    </mxGraphModel>
  </diagram>
</mxfile>
